<?xml version="1.0" standalone="no"?>
<!DOCTYPE svg PUBLIC "-//W3C//DTD SVG 20010904//EN"
 "http://www.w3.org/TR/2001/REC-SVG-20010904/DTD/svg10.dtd">
<svg version="1.0" xmlns="http://www.w3.org/2000/svg"
 width="211.000000pt" height="207.000000pt" viewBox="0 0 211.000000 207.000000"
 preserveAspectRatio="xMidYMid meet">

<g transform="translate(0.000000,207.000000) scale(0.100000,-0.100000)"
fill="#000000" stroke="none">
<path d="M920 1737 c-95 -32 -157 -72 -230 -146 -145 -148 -201 -355 -150
-555 28 -109 74 -190 155 -272 157 -158 386 -213 598 -143 l68 22 22 -22 c13
-11 28 -21 34 -21 23 0 43 32 43 69 0 31 6 42 45 74 104 87 120 211 39 306
-32 37 -176 121 -208 121 -15 0 -37 102 -25 114 10 11 12 57 3 80 -3 9 -18 16
-33 16 -20 1 -33 11 -55 46 -16 25 -47 57 -69 72 -34 23 -51 27 -111 27 -219
0 -334 -216 -205 -387 21 -29 39 -56 39 -60 0 -3 22 -34 49 -68 59 -74 153
-151 221 -182 31 -14 51 -30 54 -44 3 -12 26 -40 51 -62 25 -22 45 -42 45 -45
0 -10 -139 -37 -192 -37 -171 1 -351 97 -444 237 -139 210 -118 479 51 662 70
75 133 116 237 151 63 22 83 33 83 47 0 26 -39 27 -115 0z m214 -261 c25 -15
54 -45 76 -80 29 -46 39 -55 56 -51 30 7 38 -18 15 -46 -17 -21 -17 -26 -4
-57 8 -19 13 -45 11 -59 -3 -22 4 -27 68 -52 170 -66 241 -163 199 -269 -33
-82 -110 -121 -164 -81 -19 14 -36 19 -48 15 -17 -7 -17 -8 2 -22 68 -49 95
-94 80 -131 -6 -16 -8 -16 -26 5 -10 13 -46 41 -79 63 -99 64 -119 144 -44
175 36 15 39 15 152 -13 12 -3 22 -1 22 6 0 14 -46 37 -91 45 -35 6 -36 8 -35
49 1 31 -3 42 -14 42 -10 0 -14 -8 -12 -27 2 -19 -5 -36 -23 -54 -24 -24 -32
-26 -84 -22 -40 3 -68 11 -91 28 l-34 24 46 12 c26 6 60 21 76 33 34 24 92 87
92 101 0 24 -21 17 -45 -15 -49 -63 -131 -101 -186 -85 -44 13 -184 143 -208
194 -38 78 -20 178 36 192 20 5 31 2 45 -16 l18 -22 0 50 c0 43 4 54 26 71 38
30 115 28 168 -3z"/>
<path d="M1155 1257 c-4 -10 -17 -23 -29 -27 l-21 -9 21 0 c25 -1 48 22 41 41
-3 9 -7 7 -12 -5z"/>
<path d="M1020 1140 c0 -6 -10 -15 -22 -20 -22 -8 -22 -9 -2 -9 20 -1 44 16
44 31 0 4 -4 8 -10 8 -5 0 -10 -5 -10 -10z"/>
<path d="M1150 1121 c0 -6 -10 -16 -22 -21 l-23 -9 23 0 c22 -1 41 23 28 36
-3 4 -6 1 -6 -6z"/>
<path d="M510 385 c0 -104 2 -125 15 -125 11 0 15 12 15 50 0 49 1 50 30 50
26 0 33 -7 55 -50 14 -27 32 -50 40 -50 20 0 19 13 -5 61 l-21 40 21 26 c52
66 2 123 -106 123 l-44 0 0 -125z m108 76 c8 -4 12 -19 10 -32 -2 -20 -9 -24
-45 -27 -41 -3 -43 -2 -43 26 0 16 3 32 7 35 9 10 55 8 71 -2z"/>
<path d="M895 485 c-14 -13 -25 -33 -25 -45 0 -27 35 -60 64 -60 40 0 76 -18
76 -38 0 -44 -58 -57 -96 -21 -23 22 -44 19 -44 -6 0 -21 50 -55 82 -55 36 0
83 24 92 45 20 54 -8 93 -73 102 -49 7 -69 26 -51 48 14 17 75 20 85 5 11 -17
37 -11 33 7 -8 45 -105 57 -143 18z"/>
<path d="M1077 504 c-11 -11 -8 -217 3 -234 21 -34 31 7 28 120 -3 105 -11
134 -31 114z"/>
<path d="M1478 424 c-5 -4 -8 -61 -8 -126 0 -108 2 -119 18 -116 12 2 18 15
20 45 3 40 5 43 42 53 62 17 79 68 38 114 -23 26 -95 45 -110 30z m86 -67 c9
-15 7 -21 -8 -33 -33 -24 -46 -17 -46 22 0 31 3 35 21 32 12 -2 27 -11 33 -21z"/>
<path d="M727 402 c-23 -26 -30 -72 -15 -102 18 -33 67 -46 104 -29 40 20 32
32 -23 33 -67 1 -68 24 -1 28 46 3 53 6 56 25 8 52 -84 86 -121 45z m83 -27
c11 -13 7 -15 -30 -15 -37 0 -41 2 -30 15 7 8 20 15 30 15 10 0 23 -7 30 -15z"/>
<path d="M1156 398 c-18 -25 -21 -80 -6 -108 13 -24 55 -33 97 -19 47 15 37
32 -22 33 -69 1 -72 24 -3 28 49 3 53 5 56 30 6 53 -90 82 -122 36z m92 -25
c2 -9 -9 -13 -38 -13 -37 0 -41 2 -30 16 15 17 61 15 68 -3z"/>
<path d="M1327 402 c-9 -10 -20 -33 -23 -50 -13 -64 52 -109 113 -80 39 19 30
31 -24 32 -67 1 -68 24 -1 28 46 3 53 6 56 25 8 52 -84 86 -121 45z m83 -27
c11 -13 7 -15 -30 -15 -37 0 -41 2 -30 15 7 8 20 15 30 15 10 0 23 -7 30 -15z"/>
</g>
</svg>
